<?xml version="1.0" encoding="utf-8"?>
<!-- Generator: Adobe Illustrator 21.1.0, SVG Export Plug-In . SVG Version: 6.00 Build 0)  -->
<svg version="1.1" id="Layer_1" xmlns="http://www.w3.org/2000/svg" xmlns:xlink="http://www.w3.org/1999/xlink" x="0px" y="0px"
	 viewBox="0 0 77 60" style="enable-background:new 0 0 77 60; fill: #46423f;" xml:space="preserve">
<g>
	<path d="M56.4,39.6l-3.4,3.4c-0.4,0.4-0.4,1,0,1.4c0.2,0.2,0.4,0.3,0.7,0.3s0.5-0.1,0.7-0.3l1.8-1.8v10.4h-2.9c-0.5,0-1,0.4-1,1
		c0,0.5,0.4,1,1,1h18.6c0.5,0,1-0.4,1-1c0-0.5-0.4-1-1-1h-3V42.7l1.8,1.8c0.2,0.2,0.4,0.3,0.7,0.3s0.5-0.1,0.7-0.3
		c0.4-0.4,0.4-1,0-1.4l-3.4-3.4c-0.2-0.2-0.4-0.3-0.7-0.3c-0.3,0-0.5,0.1-0.7,0.3l-3.4,3.4c-0.4,0.4-0.4,1,0,1.4
		c0.2,0.2,0.4,0.3,0.7,0.3c0.3,0,0.5-0.1,0.7-0.3l1.8-1.8v10.4H58V42.7l1.8,1.8c0.2,0.2,0.4,0.3,0.7,0.3c0.3,0,0.5-0.1,0.7-0.3
		c0.4-0.4,0.4-1,0-1.4l-3.4-3.4C57.4,39.2,56.7,39.2,56.4,39.6z"/>
	<path d="M76.4,7.1L76.4,7.1L68.2,0H54.7h-9H32.1L24,7.1l0,0c-0.2,0.2-0.3,0.4-0.3,0.7v7c-0.7,0.2-1.3,0.4-2,0.6l0-2.6H3.9v2h15.7v1
		v11.1c-0.7,0.2-1.3,0.4-2,0.6v-2.7L0,24.6v2l15.7,0v1.1h0v22.5H0v2h17.7l0-2h5.9V59c0,0.5,0.4,1,1,1h51.1c0.5,0,1-0.4,1-1V7.9
		C76.7,7.6,76.6,7.3,76.4,7.1z M67.5,2l5.6,4.9H58.6L55.8,2H67.5z M46.8,2h6.7l2.8,4.9H44L46.8,2z M57.1,8.9v11.7l-6.5-2.8
		c-0.2-0.1-0.5-0.1-0.8,0l-6.5,2.8V8.9H57.1z M32.8,2h11.7l-2.8,4.9H27.2L32.8,2z M23.6,16.9v8.1c-0.7,0.3-1.3,0.6-2,0.9l0-8.6
		C22.3,17.3,23,17.1,23.6,16.9z M17.7,48.2l0-18.8c4-0.8,8.4-3.3,13.5-6.2c0.4-0.2,0.9-0.4,1.3-0.4c0.4,0,0.5,0.2,0.6,0.3
		c0.9,1.8-1.9,4.2-3.1,5.2c-0.3,0.2-0.5,0.4-0.6,0.5l-1.7,1.7h11.1c0.8,0,1.5,0.7,1.5,1.5c0,0.8-0.7,1.5-1.5,1.5H30
		c-0.6,0-1.1,0.4-1.1,1c0,0.5,0.5,1,1.1,1h8.9c0.8,0,1.5,0.7,1.5,1.5c0,0.8-0.7,1.5-1.5,1.5H30c-0.6,0-1.1,0.4-1.1,1
		c0,0.5,0.5,1,1.1,1h8.9c0.8,0,1.5,0.7,1.5,1.5c0,0.8-0.7,1.5-1.5,1.5h-9.2c-0.6,0-1.1,0.4-1.1,1s0.5,1,1.1,1h9.2
		c0.8,0,1.5,0.7,1.5,1.5c0,0.8-0.7,1.5-1.5,1.5H17.7z M74.8,58H25.6v-7.9h13.3c1.9,0,3.4-1.5,3.4-3.4c0-1-0.4-1.8-1-2.5
		c0.6-0.6,1-1.5,1-2.5c0-1-0.4-1.8-1-2.5c0.6-0.6,1-1.5,1-2.5s-0.4-1.8-1-2.5c0.6-0.6,1-1.5,1-2.5c0-1.9-1.5-3.4-3.4-3.4h-6.2
		c1.6-1.6,3.4-3.9,2.2-6.3c-0.5-0.9-1.3-1.4-2.4-1.4c-1,0-1.9,0.5-2.3,0.6c-1.6,0.9-3.1,1.8-4.6,2.6V8.9h15.7v13.2
		c0,0.3,0.2,0.6,0.4,0.8c0.3,0.2,0.6,0.2,0.9,0.1l7.5-3.2l7.5,3.2c0.1,0.1,0.3,0.1,0.4,0.1c0.2,0,0.4-0.1,0.5-0.2
		c0.3-0.2,0.4-0.5,0.4-0.8V8.9h15.7V58z"/>
</g>
</svg>
