<?xml version="1.0" encoding="utf-8"?>
<!-- Generator: Adobe Illustrator 24.0.1, SVG Export Plug-In . SVG Version: 6.00 Build 0)  -->
<svg version="1.1" id="Layer_1" xmlns="http://www.w3.org/2000/svg" xmlns:xlink="http://www.w3.org/1999/xlink" x="0px" y="0px"
	 viewBox="0 0 77 60" style="enable-background:new 0 0 77 60;" xml:space="preserve">
<style type="text/css">
	.st0{fill:#46423F;}
</style>
<g>
	<path class="st0" d="M0,30C0,13.2,13.8-0.4,30.7,0c16,0.4,29.6,13.6,29.3,30.6C59.7,46.8,46.3,60.3,29.4,60C13.3,59.7,0,46.5,0,30z
		 M2,29.9C1.8,45.3,14.4,57.9,29.9,58C45.5,58.1,58,45.6,58,30.1C58.1,14.2,45.4,2,29.7,2C14.4,2,2.2,14.5,2,29.9z"/>
	<path class="st0" d="M25.7,44.9c-1.1-0.1-2.3,0-3.3-0.4c-0.4-0.1-0.8-0.3-1.1-0.6c-0.5-0.4-0.6-0.9-0.4-1.5c0.3-0.8,0.8-1.4,1.3-2
		c1.3-1.3,2.6-2.7,3.8-4c2.5-2.6,5-5.2,7.4-7.7c1.4-1.5,2.8-2.9,4.2-4.4c1.1-1.1,2.2-2.3,3.3-3.4c0.3-0.4,0.7-0.7,1.2-0.9
		c0.3-0.1,0.6,0,0.9,0.2c0.2,0.2,0.4,0.4,0.5,0.6c0.6,1.2,1,2.5,1.1,3.9c0.2,2.6-0.4,5-1.4,7.3c-2.2,4.9-5.7,8.5-10.4,10.9
		c-2,1-4.1,1.6-6.3,1.7C26.2,44.9,25.9,44.9,25.7,44.9z"/>
	<path class="st0" d="M15.4,34.3c0-1.6,0.3-3.1,0.7-4.5c0.9-2.9,2.5-5.5,4.6-7.8c1.9-2.1,4.1-3.8,6.7-5.1c1.9-0.9,3.8-1.5,5.9-1.7
		c1.4-0.1,2.7-0.1,4.1,0.3c0.4,0.1,0.7,0.2,1.1,0.5c0.7,0.4,0.9,1.1,0.6,1.8c-0.3,0.8-0.9,1.5-1.5,2.1c-2.1,2.2-4.3,4.5-6.4,6.7
		c-1.4,1.5-2.8,2.9-4.2,4.4c-1.9,2-3.9,4-5.8,6c-0.7,0.7-1.4,1.4-2.1,2.2c-0.2,0.2-0.4,0.4-0.6,0.6c-0.6,0.4-1.2,0.3-1.6-0.3
		c-0.6-0.8-0.9-1.7-1.1-2.7C15.4,35.9,15.4,35.1,15.4,34.3z"/>
	<path class="st0" d="M19.4,49.5c0.1,0,0.3,0,0.5,0.1c1.1,0.6,2.2,1.1,3.4,1.4c0.4,0.1,0.7,0.6,0.5,1c-0.1,0.4-0.6,0.6-1,0.5
		c-1.3-0.4-2.6-0.9-3.8-1.6c-0.3-0.2-0.4-0.6-0.3-0.9C18.7,49.6,19,49.5,19.4,49.5z"/>
	<path class="st0" d="M33.8,8.2c-0.4-0.1-0.8-0.1-1.2-0.2c-0.9-0.1-1.8-0.2-2.7-0.2c-0.4,0-0.8-0.3-0.7-0.8c0-0.4,0.3-0.7,0.7-0.7
		c1.4,0,2.8,0.1,4.2,0.4c0.4,0.1,0.7,0.5,0.6,0.9C34.6,7.9,34.3,8.2,33.8,8.2z"/>
	<path class="st0" d="M43.5,10.7c0.2,0,0.3,0.1,0.5,0.2c1,0.8,2,1.6,2.9,2.5c0.2,0.2,0.3,0.3,0.3,0.6c0,0.3-0.1,0.6-0.4,0.8
		c-0.3,0.2-0.6,0.1-0.9-0.1c-0.6-0.6-1.3-1.3-2-1.8c-0.3-0.2-0.6-0.4-0.9-0.7c-0.3-0.2-0.4-0.6-0.3-0.9
		C42.8,10.9,43.1,10.7,43.5,10.7z"/>
	<path class="st0" d="M16.5,49.3c-0.1,0-0.3,0-0.4-0.1c-1.1-0.8-2.1-1.6-3-2.6c-0.3-0.3-0.3-0.7-0.1-1.1c0.3-0.4,0.8-0.5,1.2-0.1
		c0.8,0.8,1.6,1.5,2.5,2.2c0.1,0.1,0.3,0.2,0.4,0.3c0.3,0.2,0.4,0.5,0.3,0.9C17.2,49.1,17,49.3,16.5,49.3z"/>
	<path class="st0" d="M27.5,7.3c0,0.4-0.3,0.7-0.7,0.8c-1.2,0.2-2.4,0.5-3.6,0.8c-0.5,0.2-0.9,0-1.1-0.5c-0.1-0.4,0.1-0.8,0.6-1
		c1.2-0.4,2.5-0.7,3.8-0.9C27.1,6.5,27.5,6.8,27.5,7.3z"/>
	<path class="st0" d="M7.3,32.5c0.4,0,0.7,0.3,0.8,0.7c0.2,1.2,0.4,2.4,0.9,3.6c0.1,0.3,0.1,0.6-0.2,0.9c-0.2,0.2-0.5,0.3-0.8,0.2
		c-0.2-0.1-0.4-0.3-0.5-0.5c-0.4-1.3-0.7-2.6-0.9-3.9C6.5,32.9,6.8,32.5,7.3,32.5z"/>
	<path class="st0" d="M50.2,41.5c-0.6,0-0.9-0.6-0.6-1.2c0.4-0.8,0.8-1.6,1.1-2.4c0.1-0.3,0.2-0.6,0.3-1c0.2-0.4,0.6-0.7,0.9-0.6
		c0.4,0.1,0.7,0.6,0.5,1c-0.3,1.1-0.8,2.1-1.3,3c-0.1,0.2-0.2,0.4-0.3,0.7C50.8,41.3,50.5,41.5,50.2,41.5z"/>
	<path class="st0" d="M6.4,29.5c0-1.2,0.1-2.3,0.4-3.5c0.1-0.4,0.4-0.6,0.7-0.6c0.4,0,0.7,0.2,0.8,0.5c0.1,0.2,0.1,0.3,0,0.5
		c-0.2,1.2-0.3,2.4-0.3,3.6c0,0.5-0.3,0.8-0.8,0.8c-0.4,0-0.7-0.3-0.7-0.7C6.3,29.9,6.4,29.7,6.4,29.5z"/>
	<path class="st0" d="M48.4,42.7c0.4,0,0.6,0.1,0.7,0.4c0.2,0.3,0.1,0.6-0.1,0.9c-0.4,0.5-0.7,0.9-1.1,1.4c-0.5,0.6-1,1.1-1.5,1.6
		c-0.3,0.3-0.7,0.4-1,0.2c-0.5-0.3-0.5-0.8-0.1-1.2c0.6-0.6,1.2-1.2,1.8-1.9c0.2-0.3,0.5-0.6,0.7-0.9C48,42.8,48.2,42.7,48.4,42.7z"
		/>
	<path class="st0" d="M53.6,30.5c0,1.2-0.1,2.4-0.3,3.6c-0.1,0.4-0.4,0.7-0.8,0.6c-0.4,0-0.7-0.3-0.7-0.8c0-0.5,0.1-1,0.2-1.4
		c0.1-0.8,0.1-1.7,0.1-2.6c0-0.5,0.4-0.8,0.8-0.8c0.4,0,0.7,0.3,0.7,0.7C53.6,30.1,53.6,30.3,53.6,30.5z"/>
	<path class="st0" d="M20.7,9.4c0,0.3-0.1,0.6-0.4,0.7c-1.2,0.6-2.3,1.3-3.3,2c-0.4,0.3-0.8,0.2-1.1-0.2c-0.2-0.4-0.2-0.8,0.2-1.1
		c1.1-0.7,2.2-1.4,3.4-2.1c0.4-0.2,0.8-0.1,1,0.2C20.6,9.1,20.7,9.3,20.7,9.4z"/>
	<path class="st0" d="M10.5,19.4c0,0.1,0,0.3-0.1,0.4C9.8,20.9,9.4,22,9,23.2c-0.1,0.3-0.3,0.5-0.7,0.6c-0.3,0-0.5-0.1-0.7-0.3
		c-0.1-0.2-0.2-0.4-0.1-0.6c0.4-1.4,1-2.7,1.7-3.9c0.2-0.3,0.5-0.4,0.9-0.3C10.3,18.7,10.5,19,10.5,19.4z"/>
	<path class="st0" d="M33.3,53.4c-0.4,0-0.7-0.2-0.8-0.6c0-0.4,0.2-0.8,0.6-0.8c1.2-0.2,2.4-0.5,3.6-0.9c0.5-0.2,0.9,0,1.1,0.5
		c0.1,0.4-0.1,0.9-0.6,1c-1.2,0.4-2.5,0.7-3.8,0.8C33.4,53.4,33.3,53.4,33.3,53.4z"/>
	<path class="st0" d="M51.3,19.9c0,0.4-0.2,0.6-0.5,0.7c-0.4,0.1-0.7,0-0.9-0.3c-0.6-1.2-1.3-2.3-2-3.4c-0.2-0.3-0.1-0.8,0.2-1
		c0.3-0.2,0.8-0.2,1,0.1c0.9,1.1,1.6,2.3,2.2,3.5C51.3,19.7,51.3,19.8,51.3,19.9z"/>
	<path class="st0" d="M11.5,17.3c-0.3,0-0.5-0.1-0.7-0.3c-0.1-0.3-0.2-0.5,0-0.8c0.8-1.2,1.7-2.2,2.7-3.2c0.3-0.3,0.8-0.3,1.1,0
		c0.3,0.3,0.3,0.7,0,1.1c-0.9,0.9-1.8,1.9-2.6,2.9C11.9,17.3,11.8,17.3,11.5,17.3z"/>
	<path class="st0" d="M29.5,53.6c-1.2,0-2.4-0.1-3.5-0.4c-0.4-0.1-0.6-0.4-0.6-0.9c0-0.4,0.3-0.7,0.7-0.6c0.5,0,0.9,0.1,1.4,0.2
		c0.9,0.1,1.7,0.1,2.6,0.1c0.6,0,1,0.7,0.7,1.2c-0.1,0.2-0.4,0.4-0.6,0.4C29.9,53.6,29.7,53.6,29.5,53.6z"/>
	<path class="st0" d="M12.3,43.4c0,0.3-0.2,0.6-0.5,0.7c-0.3,0.1-0.7,0-0.9-0.2c-0.8-1.1-1.5-2.3-2.2-3.5c-0.2-0.4,0-0.8,0.3-1
		c0.4-0.2,0.8-0.1,1,0.3c0.6,1.1,1.2,2.2,2,3.2C12.2,43.1,12.3,43.2,12.3,43.4z"/>
	<path class="st0" d="M43.4,47.8c0.4,0,0.6,0.2,0.7,0.5c0.1,0.3,0,0.7-0.3,0.9c-0.6,0.5-1.3,0.9-2,1.3c-0.5,0.3-1,0.5-1.5,0.8
		c-0.4,0.2-0.8,0.1-1-0.2c-0.2-0.4-0.1-0.9,0.3-1.1c0.4-0.2,0.7-0.4,1.1-0.6c0.7-0.4,1.4-0.8,2.1-1.3C43.1,47.8,43.2,47.7,43.4,47.8
		z"/>
	<path class="st0" d="M53.4,26.6c0,0.5-0.3,0.8-0.6,0.8c-0.4,0.1-0.8-0.2-0.9-0.6c-0.2-1.3-0.5-2.6-0.9-3.8
		c-0.1-0.4,0.1-0.8,0.4-0.9c0.4-0.1,0.8,0,1,0.4C52.9,23.9,53.2,25.3,53.4,26.6z"/>
	<path class="st0" d="M41.4,9.8c0,0.6-0.5,1-1,0.7C39.2,9.9,38,9.4,36.8,9c-0.4-0.1-0.6-0.5-0.5-0.8c0.1-0.5,0.5-0.8,0.9-0.6
		c1.1,0.3,2.1,0.7,3.1,1.2C40.6,8.9,40.8,9,41,9.1C41.3,9.2,41.4,9.5,41.4,9.8z"/>
</g>
</svg>
