<?xml version="1.0" encoding="utf-8"?>
<!-- Generator: Adobe Illustrator 21.1.0, SVG Export Plug-In . SVG Version: 6.00 Build 0)  -->
<svg version="1.1" id="Layer_1" xmlns="http://www.w3.org/2000/svg" xmlns:xlink="http://www.w3.org/1999/xlink" x="0px" y="0px"
	 viewBox="0 0 49 60" style="enable-background:new 0 0 49 60; fill: #46423f;" xml:space="preserve">
<g>
	<path d="M47.7,58.1h-1.5c0.5-0.7,0.7-1.5,0.7-2.4v-14c0-0.9-0.3-1.7-0.7-2.4h1.5c0.5,0,1-0.4,1-1c0-0.5-0.4-1-1-1h-5.1H35
		c0.2-2.5,1.5-4.7,3.6-6.1l1.7-1.1c2.8-1.9,4.5-5,4.5-8.4V16c0-0.5-0.4-1-1-1H25.8V9.1h14.8h6.6c0.5,0,1-0.4,1-1V1c0-0.5-0.4-1-1-1
		h-6.6c-0.5,0-1,0.4-1,1v6.2H24.8c-0.5,0-1,0.4-1,1V15H4.5c-0.5,0-1,0.4-1,1v5.7c0,3.4,1.7,6.5,4.5,8.4l1.7,1.1
		c2.1,1.4,3.4,3.6,3.6,6.1H6H1c-0.5,0-1,0.4-1,1c0,0.5,0.4,1,1,1h1.4c-0.5,0.7-0.7,1.5-0.7,2.4v14c0,0.9,0.3,1.7,0.7,2.4H1
		c-0.5,0-1,0.4-1,1s0.4,1,1,1H6h36.6h5.1c0.5,0,1-0.4,1-1S48.2,58.1,47.7,58.1z M41.6,1.9h4.7v5.3h-4.7V1.9z M10.8,29.7l-1.7-1.1
		c-2.3-1.5-3.7-4.1-3.7-6.8v-4.8H43v4.8c0,2.8-1.4,5.3-3.7,6.8l-1.7,1.1c-2.6,1.7-4.2,4.5-4.5,7.5H15.3
		C15.1,34.1,13.4,31.4,10.8,29.7z M6,58.1c-1.3,0-2.4-1.1-2.4-2.4l0-14.1c0-0.6,0.2-1.2,0.6-1.6c0.4-0.5,1.1-0.7,1.8-0.7h36.6
		c1.3,0,2.4,1.1,2.4,2.4v14c0,1.3-1.1,2.4-2.4,2.4H6z"/>
	<path d="M24.3,46.1c-1.8,0-3.3,1.5-3.3,3.3c0,1.8,1.5,3.3,3.3,3.3s3.3-1.5,3.3-3.3C27.6,47.6,26.1,46.1,24.3,46.1z M24.3,50.9
		c-0.8,0-1.4-0.6-1.4-1.4s0.6-1.4,1.4-1.4s1.4,0.6,1.4,1.4S25.1,50.9,24.3,50.9z"/>
	<path d="M40.9,21.6c0.3,0,0.5-0.2,0.5-0.5v-2.3c0-0.3-0.2-0.5-0.5-0.5s-0.5,0.2-0.5,0.5v2.3C40.4,21.4,40.6,21.6,40.9,21.6z"/>
	<path d="M31.1,36.7C31.2,36.7,31.2,36.7,31.1,36.7c0.3,0,0.5-0.1,0.6-0.4l0.4-1.9c0.3-1.7,1.4-3.4,2.9-4.5l2.9-2.1
		c1.6-1.1,2.6-2.7,3.1-4.5c0.1-0.3-0.1-0.5-0.3-0.6c-0.3-0.1-0.5,0.1-0.6,0.3c-0.4,1.6-1.4,2.9-2.8,3.9l-2.9,2.1
		c-1.7,1.2-2.8,3.1-3.2,5.1l-0.4,1.9C30.7,36.4,30.9,36.6,31.1,36.7z"/>
</g>
</svg>
