<svg xmlns="http://www.w3.org/2000/svg" viewBox="0 0 2277 2277"><path fill="#fff" d="M0 0h2277v2277H0z"/><path d="M126.5 126.5h81v81h-81v-81zm81 0h81v81h-81v-81zm80.9 0h81v81h-81v-81zm81 0h81v81h-81v-81zm80.9 0h81v81h-81v-81zm81 0h81v81h-81v-81zm81 0h81v81h-81v-81zm242.8 0h81v81h-81v-81zm323.9 0h81v81h-81v-81zm404.8 0h81v81h-81v-81zm80.9 0h81v81h-81v-81zm81 0h81v81h-81v-81zm81 0h81v81h-81v-81zm80.9 0h81v81h-81v-81zm81 0h81v81h-81v-81zm80.9 0h81v81h-81v-81zm-1943 81h81v81h-81v-81zm485.8 0h81v81h-81v-81zm161.9 0h81v81h-81v-81zm80.9 0h81v81h-81v-81zm162 0h81v81h-81v-81zm80.9 0h81v81h-81v-81zm81 0h81v81h-81v-81zm80.9 0h81v81h-81v-81zm81 0h81v81h-81v-81zm81 0h81v81h-81v-81zm161.9 0h81v81h-81v-81zm485.7 0h81v81h-81v-81zm-1943 80.9h81v81h-81v-81zm161.9 0h81v81h-81v-81zm81 0h81v81h-81v-81zm80.9 0h81v81h-81v-81zm162 0h81v81h-81v-81zm242.8 0h81v81h-81v-81zm81 0h81v81h-81v-81zm81 0h81v81h-81v-81zm242.8 0h81v81h-81v-81zm162 0h81v81h-81v-81zm161.9 0h81v81h-81v-81zm161.9 0h81v81h-81v-81zm81 0h81v81h-81v-81zm80.9 0h81v81h-81v-81zm161.9 0h81v81h-81v-81zm-1943 81h81v81h-81v-81zm161.9 0h81v81h-81v-81zm81 0h81v81h-81v-81zm80.9 0h81v81h-81v-81zm162 0h81v81h-81v-81zm161.9 0h81v81h-81v-81zm80.9 0h81v81h-81v-81zm162 0h81v81h-81v-81zm161.9 0h81v81h-81v-81zm80.9 0h81v81h-81v-81zm323.9 0h81v81h-81v-81zm161.9 0h81v81h-81v-81zm81 0h81v81h-81v-81zm80.9 0h81v81h-81v-81zm161.9 0h81v81h-81v-81zm-1943 80.9h81v81h-81v-81zm161.9 0h81v81h-81v-81zm81 0h81v81h-81v-81zm80.9 0h81v81h-81v-81zm162 0h81v81h-81v-81zm323.8 0h81v81h-81v-81zm161.9 0h81v81h-81v-81zm161.9 0h81v81h-81v-81zm162 0h81v81h-81v-81zm161.9 0h81v81h-81v-81zm161.9 0h81v81h-81v-81zm81 0h81v81h-81v-81zm80.9 0h81v81h-81v-81zm161.9 0h81v81h-81v-81zm-1943 81h81v81h-81v-81zm485.8 0h81v81h-81v-81zm161.9 0h81v81h-81v-81zm161.9 0h81v81h-81v-81zm323.8 0h81v81h-81v-81zm81 0h81v81h-81v-81zm242.9 0h81v81h-81v-81zm485.7 0h81v81h-81v-81zm-1943 81h81v81h-81v-81zm81 0h81v81h-81v-81zm80.9 0h81v81h-81v-81zm81 0h81v81h-81v-81zm80.9 0h81v81h-81v-81zm81 0h81v81h-81v-81zm81 0h81v81h-81v-81zm161.9 0h81v81h-81v-81zm161.9 0h81v81h-81v-81zm161.9 0h81v81h-81v-81zm161.9 0h81v81h-81v-81zm162 0h81v81h-81v-81zm161.9 0h81v81h-81v-81zm80.9 0h81v81h-81v-81zm81 0h81v81h-81v-81zm81 0h81v81h-81v-81zm80.9 0h81v81h-81v-81zm81 0h81v81h-81v-81zm80.9 0h81v81h-81v-81zM1098 693.2h81v81h-81v-81zm161.9 0h81v81h-81v-81zm81 0h81v81h-81v-81zm81 0h81v81h-81v-81zm-1295.4 81h81v81h-81v-81zm81 0h81v81h-81v-81zm80.9 0h81v81h-81v-81zm81 0h81v81h-81v-81zm80.9 0h81v81h-81v-81zm162 0h81v81h-81v-81zm80.9 0h81v81h-81v-81zm81 0h81v81h-81v-81zm80.9 0h81v81h-81v-81zm81 0h81v81h-81v-81zm161.9 0h81v81h-81v-81zm81 0h81v81h-81v-81zm80.9 0h81v81h-81v-81zm81 0h81v81h-81v-81zm81 0h81v81h-81v-81zm80.9 0h81v81h-81v-81zm161.9 0h81v81h-81v-81zm162 0h81v81h-81v-81zm161.9 0h81v81h-81v-81zM207.5 855.1h81v81h-81v-81zm80.9 0h81v81h-81v-81zm161.9 0h81v81h-81v-81zm81 0h81v81h-81v-81zm323.8 0h81v81h-81v-81zm323.9 0h81v81h-81v-81zm242.9 0h81v81h-81v-81zm242.8 0h81v81h-81v-81zm323.9 0h81v81h-81v-81zm-1781.1 81h81v81h-81v-81zm161.9 0h81v81h-81v-81zm161.9 0h81v81h-81v-81zm81 0h81v81h-81v-81zm242.8 0h81v81h-81v-81zm162 0h81v81h-81v-81zm80.9 0h81v81h-81v-81zm81 0h81v81h-81v-81zm80.9 0h81v81h-81v-81zm81 0h81v81h-81v-81zm161.9 0h81v81h-81v-81zm81 0h81v81h-81v-81zm161.9 0h81v81h-81v-81zm81 0h81v81h-81v-81zm161.9 0h81v81h-81v-81zm80.9 0h81v81h-81v-81zm-1862 81h81v81h-81v-81zm80.9 0h81v81h-81v-81zm81 0h81v81h-81v-81zm80.9 0h81v81h-81v-81zm242.9 0h81v81h-81v-81zm81 0h81v81h-81v-81zm80.9 0h81v81h-81v-81zm81 0h81v81h-81v-81zm81 0h81v81h-81v-81zm404.8 0h81v81h-81v-81zm80.9 0h81v81h-81v-81zm81 0h81v81h-81v-81zm80.9 0h81v81h-81v-81zm81 0h81v81h-81v-81zm323.8 0h81v81h-81v-81zM288.4 1098h81v81h-81v-81zm81 0h81v81h-81v-81zm80.9 0h81v81h-81v-81zm162 0h81v81h-81v-81zm161.9 0h81v81h-81v-81zm80.9 0h81v81h-81v-81zm162 0h81v81h-81v-81zm161.9 0h81v81h-81v-81zm323.8 0h81v81h-81v-81zm81 0h81v81h-81v-81zm161.9 0h81v81h-81v-81zm161.9 0h81v81h-81v-81zm81 0h81v81h-81v-81zm80.9 0h81v81h-81v-81zm-1943 81h81v81h-81v-81zm404.8 0h81v81h-81v-81zm161.9 0h81v81h-81v-81zm161.9 0h81v81h-81v-81zm81 0h81v81h-81v-81zm161.9 0h81v81h-81v-81zm161.9 0h81v81h-81v-81zm404.8 0h81v81h-81v-81zm162 0h81v81h-81v-81zm161.9 0h81v81h-81v-81zm-1862.1 80.9h81v81h-81v-81zm161.9 0h81v81h-81v-81zm242.9 0h81v81h-81v-81zm81 0h81v81h-81v-81zm80.9 0h81v81h-81v-81zm81 0h81v81h-81v-81zm161.9 0h81v81h-81v-81zm242.9 0h81v81h-81v-81zm161.9 0h81v81h-81v-81zm81 0h81v81h-81v-81zm80.9 0h81v81h-81v-81zm161.9 0h81v81h-81v-81zm81 0h81v81h-81v-81zm81 0h81v81h-81v-81zm161.9 0h81v81h-81v-81zm80.9 0h81v81h-81v-81zm-1943 81h81v81h-81v-81zm161.9 0h81v81h-81v-81zm81 0h81v81h-81v-81zm404.8 0h81v81h-81v-81zm323.8 0h81v81h-81v-81zm161.9 0h81v81h-81v-81zm323.9 0h81v81h-81v-81zm80.9 0h81v81h-81v-81zm81 0h81v81h-81v-81zm81 0h81v81h-81v-81zm242.8 0h81v81h-81v-81zm-1943 81h81v81h-81v-81zm161.9 0h81v81h-81v-81zm161.9 0h81v81h-81v-81zm81 0h81v81h-81v-81zm81 0h81v81h-81v-81zm80.9 0h81v81h-81v-81zm161.9 0h81v81h-81v-81zm242.9 0h81v81h-81v-81zm81 0h81v81h-81v-81zm80.9 0h81v81h-81v-81zm162 0h81v81h-81v-81zm80.9 0h81v81h-81v-81zm81 0h81v81h-81v-81zm80.9 0h81v81h-81v-81zm81 0h81v81h-81v-81zm161.9 0h81v81h-81v-81zm-1133.4 80.9h81v81h-81v-81zm485.7 0h81v81h-81v-81zm81 0h81v81h-81v-81zm81 0h81v81h-81v-81zm323.8 0h81v81h-81v-81zm81 0h81v81h-81v-81zm80.9 0h81v81h-81v-81zm-1781.1 81h81v81h-81v-81zm81 0h81v81h-81v-81zm80.9 0h81v81h-81v-81zm81 0h81v81h-81v-81zm80.9 0h81v81h-81v-81zm81 0h81v81h-81v-81zm81 0h81v81h-81v-81zm161.9 0h81v81h-81v-81zm80.9 0h81v81h-81v-81zm81 0h81v81h-81v-81zm81 0h81v81h-81v-81zm80.9 0h81v81h-81v-81zm323.9 0h81v81h-81v-81zm161.9 0h81v81h-81v-81zm161.9 0h81v81h-81v-81zm81 0h81v81h-81v-81zm80.9 0h81v81h-81v-81zm81 0h81v81h-81v-81zm80.9 0h81v81h-81v-81zm-1943 80.9h81v81h-81v-81zm485.8 0h81v81h-81v-81zm323.8 0h81v81h-81v-81zm81 0h81v81h-81v-81zm404.8 0h81v81h-81v-81zm323.8 0h81v81h-81v-81zm81 0h81v81h-81v-81zm242.8 0h81v81h-81v-81zm-1943 81h81v81h-81v-81zm161.9 0h81v81h-81v-81zm81 0h81v81h-81v-81zm80.9 0h81v81h-81v-81zm162 0h81v81h-81v-81zm161.9 0h81v81h-81v-81zm80.9 0h81v81h-81v-81zm81 0h81v81h-81v-81zm81 0h81v81h-81v-81zm80.9 0h81v81h-81v-81zm81 0h81v81h-81v-81zm80.9 0h81v81h-81v-81zm81 0h81v81h-81v-81zm81 0h81v81h-81v-81zm80.9 0h81v81h-81v-81zm81 0h81v81h-81v-81zm80.9 0h81v81h-81v-81zm81 0h81v81h-81v-81zm81 0h81v81h-81v-81zm80.9 0h81v81h-81v-81zm-1781.1 81h81v81h-81v-81zm161.9 0h81v81h-81v-81zm81 0h81v81h-81v-81zm80.9 0h81v81h-81v-81zm162 0h81v81h-81v-81zm161.9 0h81v81h-81v-81zm80.9 0h81v81h-81v-81zm81 0h81v81h-81v-81zm161.9 0h81v81h-81v-81zm161.9 0h81v81h-81v-81zm81 0h81v81h-81v-81zm81 0h81v81h-81v-81zm80.9 0h81v81h-81v-81zm81 0h81v81h-81v-81zm323.8 0h81v81h-81v-81zm81 0h81v81h-81v-81zm80.9 0h81v81h-81v-81zm-1943 80.9h81v81h-81v-81zm161.9 0h81v81h-81v-81zm81 0h81v81h-81v-81zm80.9 0h81v81h-81v-81zm162 0h81v81h-81v-81zm161.9 0h81v81h-81v-81zm80.9 0h81v81h-81v-81zm81 0h81v81h-81v-81zm242.9 0h81v81h-81v-81zm80.9 0h81v81h-81v-81zm162 0h81v81h-81v-81zm242.8 0h81v81h-81v-81zm242.9 0h81v81h-81v-81zm161.9 0h81v81h-81v-81zm-1943 81h81v81h-81v-81zm485.8 0h81v81h-81v-81zm161.9 0h81v81h-81v-81zm80.9 0h81v81h-81v-81zm81 0h81v81h-81v-81zm404.8 0h81v81h-81v-81zm81 0h81v81h-81v-81zm242.8 0h81v81h-81v-81zm81 0h81v81h-81v-81zm81 0h81v81h-81v-81zm242.8 0h81v81h-81v-81zm-1943 80.9h81v81h-81v-81zm81 0h81v81h-81v-81zm80.9 0h81v81h-81v-81zm81 0h81v81h-81v-81zm80.9 0h81v81h-81v-81zm81 0h81v81h-81v-81zm81 0h81v81h-81v-81zm161.9 0h81v81h-81v-81zm80.9 0h81v81h-81v-81zm162 0h81v81h-81v-81zm80.9 0h81v81h-81v-81zm81 0h81v81h-81v-81zm80.9 0h81v81h-81v-81zm242.9 0h81v81h-81v-81zm81 0h81v81h-81v-81zm80.9 0h81v81h-81v-81zm81 0h81v81h-81v-81zm81 0h81v81h-81v-81zm80.9 0h81v81h-81v-81zm81 0h81v81h-81v-81zm80.9 0h81v81h-81v-81z"/></svg>